<?xml version="1.0" encoding="UTF-8"?> <svg xmlns="http://www.w3.org/2000/svg" width="228" height="25" viewBox="0 0 228 25" fill="none"><path d="M226.019 3.48036L223.779 5.45066C223.19 4.87383 222.453 4.47198 221.65 4.28961C220.847 4.10724 220.009 4.15146 219.23 4.41739C218.817 4.59577 218.452 4.86926 218.165 5.21569C217.877 5.56211 217.675 5.9717 217.574 6.41124C217.474 6.85077 217.478 7.30788 217.587 7.74547C217.695 8.18307 217.905 8.58882 218.199 8.92983C219.009 9.7791 220.072 10.1358 221.28 10.3807C222.72 10.682 224.075 11.3019 225.246 12.1953C226.373 13.1081 227.143 14.3906 227.421 15.8171C227.698 17.2437 227.466 18.7228 226.765 19.9944C226.04 21.2197 224.971 22.2024 223.691 22.8187C222.411 23.4351 220.978 23.6575 219.573 23.458C218.462 23.3258 217.394 22.9507 216.444 22.3591C215.494 21.7675 214.684 20.9738 214.073 20.034L216.528 17.9802C217.103 18.8825 217.96 19.5686 218.964 19.9316C219.968 20.2947 221.064 20.3142 222.08 19.9873C222.883 19.7594 223.567 19.2277 223.988 18.5042C224.408 17.7807 224.533 16.9216 224.336 16.1076C223.913 14.7954 223.18 14.0269 221.42 13.6178C219.66 13.2087 217.937 12.702 216.484 11.6362C215.504 10.8131 214.818 9.6917 214.529 8.44195C214.241 7.19221 214.366 5.88219 214.886 4.71039C215.451 3.49708 216.391 2.4989 217.566 1.86392C218.955 1.16216 220.536 0.93993 222.064 1.23166C223.591 1.5234 224.98 2.31281 226.016 3.47753M217.352 1.4492C216.086 2.13333 215.075 3.20908 214.468 4.51647C213.905 5.78383 213.77 7.20103 214.083 8.55259C214.396 9.90414 215.14 11.1161 216.202 12.0042C217.718 13.121 219.358 13.69 221.356 14.0821C222.592 14.3241 223.513 15.1026 223.895 16.2378C224.058 16.9347 223.946 17.6678 223.582 18.2836C223.219 18.8994 222.632 19.3501 221.945 19.5414C220.939 19.868 219.85 19.8181 218.879 19.401C217.907 18.9839 217.119 18.2277 216.661 17.2725L213.457 19.9392C214.089 21.0285 214.964 21.9556 216.015 22.6473C217.065 23.339 218.26 23.7764 219.508 23.9251C221.005 24.1384 222.532 23.9013 223.896 23.2438C225.259 22.5862 226.398 21.5377 227.168 20.2308C227.925 18.8618 228.177 17.2683 227.877 15.7315C227.578 14.1947 226.747 12.8134 225.532 11.8315C224.301 10.8801 222.868 10.2267 221.344 9.92206C220.3 9.7239 219.281 9.39268 218.543 8.61985C218.301 8.33478 218.128 7.99683 218.039 7.63294C217.95 7.26904 217.946 6.88925 218.029 6.52385C218.112 6.15844 218.279 5.81751 218.516 5.52822C218.754 5.23894 219.055 5.00929 219.396 4.85759C220.162 4.60054 220.987 4.58223 221.764 4.80507C222.54 5.02792 223.231 5.48146 223.745 6.10602L226.667 3.53415C225.593 2.16328 224.079 1.20749 222.383 0.828786C220.687 0.450085 218.912 0.671773 217.36 1.45627" fill="#1B1B1B"></path><path d="M201.089 20.1209H210.46V23.3354H197.642V1.06475H201.089V20.1209ZM201.554 0.597656H197.183V23.8025H210.931V19.6552H201.56L201.554 0.597656Z" fill="#1B1B1B"></path><path d="M193.468 23.3354H190.023V1.06475H193.468V23.3354ZM193.933 0.597656H189.562V23.8025H193.933V0.597656Z" fill="#1B1B1B"></path><path d="M176.228 6.34375L178.254 12.3852H174.244L176.228 6.34375ZM174.882 11.9181H177.599L176.227 7.82156L174.882 11.9181Z" fill="#1B1B1B"></path><path d="M185.515 23.3354H181.912L179.321 15.6014H173.209L170.612 23.3354H167.166L174.447 1.06475H177.89L185.515 23.3354ZM178.222 0.597656H174.11L166.523 23.8025H170.946L173.543 16.0685H178.985L181.577 23.8025H186.163L178.222 0.597656Z" fill="#1B1B1B"></path><path d="M159.479 16.2567V1.06475H162.925V17.6637V23.3354H160.16L150.946 8.48736V23.3354H147.499V1.06475H150.019L159.479 16.2567ZM150.276 0.597656H147.032V23.8025H151.404V10.1208L159.895 23.8025H163.382L163.391 17.6651V0.597656H159.019V14.629L150.276 0.597656Z" fill="#1B1B1B"></path><path d="M13.8447 12.2547V1.4775C13.8447 1.36851 13.8447 1.25952 13.8532 1.15194C13.8553 1.13257 13.8636 1.1144 13.8768 1.10012C13.89 1.08584 13.9074 1.07622 13.9265 1.07268C13.9857 1.07268 14.045 1.06277 14.1028 1.06277H16.7385C16.7557 1.0616 16.7729 1.06426 16.789 1.07056C16.8051 1.07686 16.8196 1.08666 16.8314 1.09924C16.8433 1.11181 16.8522 1.12687 16.8576 1.14332C16.863 1.15978 16.8647 1.17722 16.8626 1.19441C16.8626 1.27367 16.8626 1.35294 16.8626 1.4322V5.76772C16.8626 5.79744 16.8626 5.82716 16.8626 5.85689C16.8697 5.98511 16.848 6.11331 16.7991 6.23198C16.6285 6.65662 16.4762 7.10248 16.3478 7.54976C16.1696 8.15677 16.0283 8.77411 15.9248 9.39834C15.8486 9.87676 15.7922 10.3566 15.7499 10.8407C15.7091 11.3926 15.6963 11.9463 15.7118 12.4996C15.7118 12.835 15.7471 13.1719 15.7809 13.506C15.8491 14.175 15.9583 14.8392 16.1081 15.4947C16.2742 16.2279 16.4963 16.9471 16.7723 17.6461C16.8393 17.8105 16.8733 17.9866 16.8724 18.1642C16.8724 19.7759 16.8724 21.3891 16.8724 23.0036C16.8724 23.073 16.8724 23.1452 16.8724 23.2117C16.864 23.4127 16.8527 23.4254 16.6482 23.4254H14.0619C14.0123 23.4273 13.9626 23.4235 13.9138 23.4141C13.8886 23.403 13.8685 23.3828 13.8574 23.3575C13.848 23.3292 13.8441 23.2994 13.8461 23.2697C13.8461 23.1706 13.8461 23.0716 13.8461 22.9725V12.2547" fill="#1B1B1B"></path><path d="M0 0.726562C0.0155122 0.737886 0.0352556 0.761949 0.0479474 0.759118C0.194328 0.735786 0.34282 0.728666 0.49075 0.737886C1.44875 0.737886 2.40627 0.737886 3.36333 0.737886C3.45217 0.737886 3.5396 0.737886 3.62845 0.737886C3.64761 0.741879 3.66513 0.751579 3.67871 0.76572C3.6923 0.779861 3.70132 0.797784 3.7046 0.817151C3.7046 0.846875 3.7046 0.8766 3.71306 0.906324V9.90998C3.71306 10.0091 3.71306 10.1067 3.71306 10.2058C3.71506 10.2254 3.72399 10.2436 3.73823 10.2571C3.75246 10.2706 3.77105 10.2785 3.79062 10.2794C3.86019 10.2794 3.92929 10.2794 3.99792 10.2794H13.2446C13.3132 10.2794 13.3823 10.2794 13.4519 10.2794C13.4712 10.277 13.4893 10.2686 13.5037 10.2554C13.5181 10.2422 13.5281 10.2249 13.5323 10.2058C13.5323 10.1761 13.5323 10.1464 13.5323 10.1166C13.5323 10.0275 13.5323 9.93829 13.5323 9.84912V1.12006C13.5323 1.02098 13.5323 0.921894 13.5323 0.822813C13.5331 0.80323 13.5407 0.784559 13.5539 0.770067C13.567 0.755576 13.5849 0.746189 13.6042 0.743548C13.6634 0.743548 13.7227 0.743548 13.7819 0.743548C14.816 0.743548 15.8525 0.743548 16.8914 0.743548C16.9506 0.743548 17.0084 0.743548 17.0677 0.743548C17.0869 0.747643 17.1045 0.757346 17.1183 0.771445C17.1321 0.785543 17.1415 0.80341 17.1452 0.822813C17.1452 0.851122 17.1452 0.880846 17.1452 0.91057C17.1452 1.09882 17.1452 1.28708 17.1452 1.47675C17.1452 2.92145 17.1452 4.36662 17.1452 5.81226C17.1452 5.8618 17.1452 5.91134 17.1452 5.95381C17.1485 6.04279 17.1317 6.13136 17.0959 6.21283C16.9379 6.59642 16.7997 6.9885 16.6728 7.38482C16.4238 8.18798 16.2408 9.01028 16.1256 9.84345C16.0012 10.7156 15.954 11.5971 15.9846 12.4776C16.0058 13.0126 16.0495 13.5448 16.1256 14.0742C16.2401 14.9074 16.4227 15.7297 16.6714 16.5329C16.7913 16.9207 16.9224 17.3043 17.0761 17.6794C17.1228 17.788 17.1468 17.905 17.1466 18.0233C17.1466 19.7162 17.1466 21.4091 17.1466 23.1019C17.1466 23.2803 17.1466 23.4586 17.1396 23.637C17.1387 23.6614 17.1291 23.6847 17.1125 23.7027C17.096 23.7206 17.0735 23.7319 17.0493 23.7346C16.9901 23.7346 16.9309 23.7417 16.8716 23.7417H13.7692C13.71 23.7417 13.6507 23.7417 13.5929 23.7318C13.5783 23.7294 13.5648 23.7226 13.5542 23.7122C13.5436 23.7018 13.5364 23.6884 13.5337 23.6738C13.5262 23.6452 13.5228 23.6156 13.5238 23.586C13.5238 23.4869 13.5238 23.3879 13.5238 23.2888V14.0884C13.5238 13.9794 13.5238 13.8704 13.5238 13.7614C13.522 13.7369 13.5106 13.714 13.4921 13.6979C13.4737 13.6817 13.4496 13.6735 13.4251 13.6751H13.1586H4.04868C3.67216 13.6751 3.71447 13.6369 3.71447 14.0049C3.71447 17.1132 3.71447 20.2215 3.71447 23.3298C3.71447 23.4289 3.71447 23.528 3.71447 23.6271C3.71447 23.7262 3.67075 23.746 3.58191 23.7488H3.44089C2.41426 23.7488 1.38764 23.7488 0.361012 23.7488C0.243818 23.7426 0.12706 23.7298 0.0112819 23.7106L0 0.726562ZM0.366653 12.2497V22.9689C0.366653 23.0581 0.366653 23.1472 0.366653 23.2364C0.366653 23.4077 0.383575 23.4204 0.552799 23.4247H3.15744H3.29846C3.31779 23.4224 3.33584 23.4139 3.34986 23.4003C3.36387 23.3867 3.37306 23.3689 3.37602 23.3496C3.37602 23.252 3.37602 23.1529 3.37602 23.0538C3.37602 15.8577 3.37602 8.66203 3.37602 1.46684C3.37602 1.37767 3.37602 1.28849 3.37602 1.19932C3.37602 1.11015 3.33935 1.07476 3.25333 1.07052C3.21385 1.07052 3.17436 1.07052 3.13488 1.07052H0.600746C0.551389 1.07052 0.502032 1.07052 0.459726 1.07759C0.440751 1.08213 0.423368 1.09177 0.409452 1.10549C0.395536 1.11921 0.385614 1.13648 0.380755 1.15544C0.380755 1.26302 0.380755 1.37201 0.380755 1.481V12.2596M13.858 12.2596V22.9774C13.858 23.0765 13.858 23.1755 13.858 23.2746C13.8567 23.3043 13.8605 23.334 13.8693 23.3624C13.8806 23.385 13.9032 23.4148 13.9271 23.419C13.9736 23.4281 14.0209 23.4319 14.0682 23.4303H16.6432C16.8477 23.4303 16.8589 23.4176 16.8674 23.2166C16.8674 23.1472 16.8674 23.075 16.8674 23.0085C16.8674 21.3949 16.8674 19.7818 16.8674 18.1691C16.8683 17.9915 16.8343 17.8155 16.7673 17.6511C16.4912 16.9521 16.2692 16.2328 16.1031 15.4996C15.9533 14.8441 15.844 14.1799 15.7759 13.5109C15.7421 13.1768 15.7124 12.8414 15.7068 12.5059C15.6913 11.9522 15.704 11.398 15.7449 10.8456C15.7872 10.3615 15.8436 9.88167 15.9198 9.40325C16.0233 8.77902 16.1646 8.16169 16.3428 7.55468C16.4711 7.1074 16.6249 6.66861 16.7941 6.2369C16.8459 6.1189 16.8705 5.99067 16.866 5.8618C16.866 5.83349 16.866 5.80235 16.866 5.77404V1.43145C16.866 1.35219 16.866 1.27292 16.866 1.19366C16.8681 1.17647 16.8664 1.15903 16.861 1.14258C16.8557 1.12612 16.8467 1.11107 16.8349 1.09849C16.823 1.08591 16.8085 1.07612 16.7924 1.06981C16.7764 1.06351 16.7591 1.06085 16.7419 1.06202H14.102C14.0442 1.06202 13.985 1.06202 13.9257 1.07193C13.9066 1.07547 13.8892 1.08509 13.876 1.09937C13.8628 1.11365 13.8545 1.13183 13.8524 1.1512C13.8524 1.25877 13.8453 1.36776 13.8453 1.47675C13.8453 5.06915 13.8453 8.66156 13.8453 12.254M8.6276 10.5922H3.86113C3.83151 10.5922 3.8019 10.5922 3.77229 10.5993C3.75312 10.602 3.7353 10.6107 3.72137 10.6242C3.70744 10.6376 3.69811 10.6552 3.69473 10.6743C3.69473 10.7536 3.68485 10.8329 3.68485 10.9107C3.68485 11.3467 3.68485 11.7826 3.68485 12.2172C3.68485 12.5441 3.68485 12.8711 3.68485 13.1981C3.68485 13.3255 3.71729 13.3566 3.84138 13.3594H13.3461C13.5548 13.3594 13.5633 13.3297 13.5633 13.14V10.7946C13.5633 10.7564 13.5633 10.7168 13.5563 10.6772C13.5551 10.6576 13.5471 10.6391 13.5337 10.6249C13.5203 10.6106 13.5023 10.6016 13.4829 10.5993C13.3842 10.5993 13.2855 10.5908 13.1882 10.5908H8.6276" fill="#1B1B1B"></path><path d="M0.366211 12.2516V1.47298C0.366211 1.36399 0.366211 1.255 0.366211 1.14743C0.370926 1.1284 0.3808 1.11105 0.394739 1.09731C0.408679 1.08356 0.426139 1.07397 0.445182 1.06958C0.494539 1.06958 0.543896 1.0625 0.586202 1.0625H3.14712C3.18661 1.0625 3.2261 1.0625 3.26417 1.0625C3.3516 1.0625 3.38545 1.10072 3.38827 1.19131C3.39109 1.28189 3.38827 1.36965 3.38827 1.45882C3.38827 8.65496 3.38827 15.8506 3.38827 23.0458C3.38827 23.1449 3.38827 23.244 3.38827 23.3416C3.38531 23.3609 3.37612 23.3787 3.36211 23.3923C3.3481 23.4058 3.33004 23.4144 3.31071 23.4167C3.26135 23.4167 3.21199 23.4167 3.16969 23.4167H0.550947C0.383133 23.4167 0.369031 23.3997 0.366211 23.2284C0.366211 23.1392 0.366211 23.05 0.366211 22.9609V12.2516Z" fill="#1B1B1B"></path><path d="M8.62859 10.5918H13.1894C13.2867 10.5918 13.3855 10.5918 13.4842 10.6003C13.5036 10.6026 13.5215 10.6116 13.5349 10.6259C13.5483 10.6401 13.5563 10.6586 13.5575 10.6781C13.5575 10.7178 13.5646 10.7574 13.5646 10.7956V13.1426C13.5646 13.3323 13.5561 13.3634 13.3474 13.362H3.84209C3.71798 13.362 3.68696 13.328 3.68555 13.2006C3.68555 12.8736 3.68555 12.5466 3.68555 12.2197C3.68555 11.7851 3.68555 11.3491 3.68555 10.9131C3.68555 10.8353 3.68555 10.756 3.69542 10.6767C3.69881 10.6576 3.70813 10.6401 3.72206 10.6266C3.736 10.6131 3.75382 10.6044 3.77299 10.6017C3.8026 10.6017 3.83222 10.5946 3.86183 10.5946H8.62859" fill="#1B1B1B"></path><path d="M62.0664 12.2399V1.16406C62.0664 1.06498 62.0664 0.965899 62.0664 0.866818C62.0664 0.767737 62.1087 0.745089 62.1961 0.742259C62.2554 0.742259 62.3146 0.742259 62.3738 0.742259C63.3017 0.742259 64.2297 0.742259 65.1576 0.742259H65.3352C65.3599 0.741473 65.3844 0.747205 65.4062 0.758879C65.4279 0.770554 65.4463 0.787763 65.4593 0.808785C65.4974 0.865403 65.5313 0.926267 65.5665 0.985716C67.1441 3.72885 68.7216 6.46868 70.2992 9.20521C71.2797 10.9113 72.2607 12.6164 73.2422 14.3206C73.2769 14.38 73.315 14.4372 73.3565 14.4919C73.3641 14.496 73.3725 14.4981 73.3811 14.4981C73.3898 14.4981 73.3982 14.496 73.4058 14.4919C73.4528 14.4284 73.4961 14.3622 73.5356 14.2937C73.9708 13.5388 74.4052 12.7839 74.8386 12.029L78.5333 5.60149C79.4208 4.06809 80.3078 2.5328 81.1944 0.995624C81.3579 0.712534 81.2987 0.747921 81.6315 0.747921C82.5397 0.747921 83.4479 0.747921 84.356 0.747921H84.5633C84.6677 0.747921 84.6846 0.801707 84.6874 0.878141C84.6902 0.954575 84.6874 1.01969 84.6874 1.08621V5.44437C84.6874 5.4741 84.6874 5.50382 84.6874 5.53355C84.6939 5.65213 84.6676 5.77021 84.6113 5.87467C84.2692 6.59876 83.9862 7.34952 83.7652 8.11957C83.5984 8.69924 83.4651 9.2881 83.3661 9.88321C83.2705 10.4494 83.2093 11.0209 83.1827 11.5945C83.1743 11.8026 83.1574 12.0092 83.1531 12.2173C83.1487 12.821 83.1788 13.4245 83.2434 14.0248C83.3837 15.3943 83.7096 16.7382 84.2122 18.0192C84.3419 18.3504 84.4942 18.6745 84.6352 19.0001C84.6705 19.0709 84.6888 19.1489 84.6888 19.228C84.6888 19.2676 84.6888 19.3073 84.6888 19.3469V23.4743C84.6888 23.7574 84.7043 23.7574 84.4167 23.7574H81.5963C81.5272 23.7574 81.4553 23.7574 81.389 23.7475C81.3698 23.7442 81.3521 23.7349 81.3384 23.7209C81.3247 23.7069 81.3158 23.689 81.3128 23.6697C81.3128 23.6399 81.3128 23.6102 81.3128 23.5805V6.9405C81.3128 6.83151 81.3128 6.72252 81.3029 6.61495C81.3029 6.61495 81.2917 6.60221 81.2846 6.59938C81.2776 6.59655 81.2606 6.59938 81.2578 6.59938C81.2141 6.6659 81.1704 6.73243 81.1309 6.80037L79.4006 9.80819C78.1784 11.9408 76.9511 14.0743 75.7186 16.2088C75.0144 17.4356 74.3093 18.6623 73.6033 19.889C73.544 19.9923 73.4806 20.0914 73.4185 20.1919C73.408 20.2019 73.3942 20.2074 73.3797 20.2074C73.3653 20.2074 73.3514 20.2019 73.341 20.1919C73.2987 20.1268 73.2535 20.0617 73.214 19.9923L71.8546 17.6285C69.8803 14.1918 67.906 10.7556 65.9318 7.31984C65.7992 7.08771 65.6662 6.85604 65.5327 6.62485C65.5082 6.58233 65.4794 6.54249 65.4467 6.50596C65.4389 6.50257 65.4305 6.50082 65.422 6.50082C65.4135 6.50082 65.4051 6.50257 65.3973 6.50596C65.365 6.55455 65.3358 6.60513 65.3099 6.65741C65.0196 7.38175 64.7839 8.12696 64.6048 8.88674C64.489 9.36774 64.3977 9.85434 64.3312 10.3446C64.2562 10.8539 64.2115 11.3672 64.1972 11.8818C64.1888 12.2593 64.1888 12.6367 64.1972 13.0142C64.1972 13.4388 64.248 13.8634 64.2973 14.2881C64.3839 15.035 64.5253 15.7744 64.7204 16.5004C64.8919 17.1403 65.1062 17.7679 65.362 18.3787C65.4278 18.5018 65.4557 18.6417 65.4424 18.7807V23.5012C65.4424 23.5607 65.4424 23.6201 65.4424 23.6796C65.4382 23.6987 65.4282 23.716 65.4138 23.7292C65.3995 23.7423 65.3814 23.7507 65.362 23.7532C65.3324 23.7532 65.3028 23.7532 65.2732 23.7532H62.4514C62.3724 23.7532 62.2934 23.7532 62.2145 23.7532C62.1031 23.7532 62.0735 23.7192 62.0735 23.6116C62.0735 23.5041 62.0735 23.4135 62.0735 23.3158V12.2399M81.3495 3.64392V1.62408C81.353 1.585 81.353 1.54568 81.3495 1.5066C81.3495 1.49245 81.3241 1.48112 81.3086 1.47121C81.2931 1.46131 81.2888 1.47121 81.2832 1.48254C81.1734 1.63396 81.0758 1.79394 80.9913 1.96096C80.2693 3.21033 79.5491 4.46111 78.8309 5.71331L76.2389 10.2116C75.3815 11.7035 74.5236 13.1944 73.6653 14.6844C73.5863 14.826 73.5059 14.9576 73.4256 15.0935C73.4218 15.0995 73.4167 15.1046 73.4106 15.1084C73.4046 15.1121 73.3977 15.1144 73.3906 15.1151C73.3836 15.1158 73.3764 15.1148 73.3697 15.1123C73.3631 15.1098 73.3571 15.1058 73.3522 15.1005C73.3085 15.0354 73.2634 14.9703 73.2239 14.9024C72.9024 14.3456 72.5823 13.7884 72.2636 13.2307L70.5502 10.2484L68.2572 6.26533L65.9515 2.25396C65.8189 2.02277 65.6855 1.79205 65.551 1.5618C65.5343 1.53792 65.5144 1.51649 65.4918 1.49811C65.4918 1.49811 65.4734 1.49811 65.465 1.49811C65.4565 1.49811 65.4452 1.50802 65.4452 1.51368C65.4452 1.56322 65.4368 1.61276 65.4368 1.65522V3.35376C65.4368 4.13508 65.4368 4.91783 65.4368 5.69915C65.4353 5.79862 65.4611 5.89658 65.5115 5.98224L66.6637 7.98793L68.7945 11.6879C69.2533 12.4843 69.7106 13.2817 70.1666 14.08C70.7194 15.0397 71.2722 15.9989 71.825 16.9576L73.2578 19.4516C73.2817 19.4941 73.3099 19.5351 73.3367 19.5762C73.3635 19.6172 73.4016 19.6045 73.4143 19.5847C73.4594 19.5196 73.5045 19.4545 73.544 19.3865L75.7778 15.5068L78.0835 11.4954L80.8334 6.71544L81.279 5.94969C81.3273 5.87472 81.3523 5.78702 81.3509 5.69774C81.3509 5.62838 81.3509 5.55619 81.3509 5.48967V3.64959M62.3668 12.2513V23.0002C62.3668 23.0992 62.3668 23.1983 62.3668 23.2974C62.3668 23.3965 62.4119 23.4205 62.4909 23.4248C62.5402 23.4248 62.5896 23.4248 62.6389 23.4248H64.86C64.9192 23.4248 64.9785 23.4248 65.0377 23.4248C65.0623 23.4256 65.0862 23.4167 65.1044 23.4C65.1226 23.3834 65.1335 23.3603 65.135 23.3356C65.135 23.2762 65.135 23.2167 65.135 23.1573C65.135 21.722 65.135 20.2867 65.135 18.8515C65.1364 18.7133 65.109 18.5764 65.0546 18.4495C64.8564 17.9754 64.6831 17.4911 64.5357 16.9987C64.3205 16.2788 64.1555 15.5448 64.0421 14.8019C63.9758 14.3617 63.9363 13.9187 63.9011 13.4756C63.8884 13.3341 63.8912 13.1798 63.8856 13.0312C63.8592 12.3991 63.8738 11.766 63.9293 11.1359C63.973 10.6419 64.035 10.1521 64.1225 9.66523C64.247 8.97438 64.4185 8.29289 64.6358 7.62557C64.7669 7.22217 64.9178 6.8216 65.0772 6.42952C65.1216 6.32994 65.1428 6.22151 65.1392 6.11246C65.1392 6.06434 65.1392 6.01338 65.1392 5.97092V1.44998C65.1392 1.38062 65.1392 1.30844 65.1392 1.24191C65.1392 1.21219 65.1392 1.18246 65.1392 1.15274C65.1373 1.13329 65.1292 1.11499 65.1159 1.10067C65.1027 1.08635 65.0851 1.07679 65.0659 1.07347C64.9968 1.07347 64.9249 1.06357 64.86 1.06357H62.6305C62.5811 1.06357 62.5318 1.06357 62.4895 1.06357C62.4472 1.06357 62.3766 1.09895 62.3738 1.17114C62.3738 1.27022 62.3738 1.3693 62.3738 1.46838V12.2484M81.6216 12.2201V23.2677C81.6207 23.2973 81.6241 23.3268 81.6315 23.3554C81.634 23.3701 81.6411 23.3837 81.6518 23.3941C81.6624 23.4045 81.676 23.4113 81.6907 23.4135C81.75 23.4135 81.8078 23.4234 81.867 23.4234H84.1473C84.1971 23.4234 84.2465 23.4234 84.2954 23.4234C84.32 23.4238 84.3437 23.4145 84.3616 23.3976C84.3796 23.3807 84.3902 23.3574 84.3913 23.3328C84.3913 23.2932 84.3913 23.2535 84.3913 23.2139C84.3913 21.9268 84.3913 20.6401 84.3913 19.354C84.3926 19.2453 84.369 19.1378 84.3222 19.0397C83.6684 17.6404 83.2263 16.151 83.0107 14.6207C82.9609 14.2584 82.9214 13.8951 82.8922 13.5308C82.8654 13.1954 82.8485 12.8599 82.8485 12.523C82.8485 12.1182 82.8612 11.7134 82.8908 11.3086C82.9247 10.8542 82.974 10.4027 83.0431 9.95399C83.1347 9.37785 83.259 8.80744 83.4154 8.24554C83.6432 7.40513 83.9448 6.58663 84.3165 5.79965C84.3698 5.69365 84.395 5.57571 84.3899 5.45711C84.3899 5.40757 84.3899 5.35803 84.3899 5.31557V1.2405C84.3899 1.21077 84.3899 1.18105 84.3899 1.15132C84.3879 1.13183 84.3794 1.11358 84.3659 1.09947C84.3523 1.08537 84.3345 1.07621 84.3151 1.07347C84.2573 1.07347 84.1981 1.06357 84.1389 1.06357H81.8825C81.8233 1.06357 81.7641 1.06356 81.7049 1.07064C81.6862 1.07524 81.669 1.08455 81.655 1.09768C81.6409 1.11081 81.6304 1.12732 81.6245 1.14566C81.6245 1.25465 81.6245 1.36364 81.6245 1.47263V12.2229" fill="#1B1B1B"></path><path d="M81.3478 3.64183V5.48192C81.3478 5.55127 81.3478 5.62346 81.3478 5.68999C81.3502 5.77964 81.3256 5.86794 81.2773 5.94335C81.1278 6.20002 80.9792 6.45669 80.8316 6.71335L78.0817 11.4933L75.7761 15.5047L73.5423 19.3844C73.5028 19.4524 73.4577 19.5175 73.4126 19.5826C73.3999 19.6024 73.3491 19.5968 73.335 19.5741C73.3209 19.5515 73.28 19.492 73.256 19.4495L71.8233 16.9555C71.2714 15.9959 70.7186 15.0367 70.1649 14.0779C69.707 13.2815 69.2497 12.4841 68.7928 11.6858L66.6619 7.98584L65.5084 5.98015C65.458 5.89449 65.4322 5.79653 65.4337 5.69706C65.4337 4.91574 65.4337 4.14007 65.4337 3.35167V1.65313C65.4337 1.60501 65.4337 1.55547 65.4421 1.51159C65.4421 1.51159 65.4534 1.49885 65.4619 1.49602C65.4703 1.49319 65.4844 1.49602 65.4887 1.49602C65.5109 1.51477 65.5308 1.53616 65.5479 1.55971C65.6814 1.7909 65.8149 2.02209 65.9484 2.25328C66.7174 3.58946 67.486 4.92612 68.2541 6.26324L70.547 10.2463L72.2604 13.2301C72.5791 13.7859 72.8993 14.3426 73.2208 14.9003C73.2603 14.9682 73.3054 15.0333 73.3491 15.0985C73.354 15.1037 73.36 15.1077 73.3666 15.1102C73.3733 15.1127 73.3804 15.1137 73.3875 15.113C73.3946 15.1123 73.4014 15.11 73.4075 15.1063C73.4135 15.1025 73.4186 15.0974 73.4224 15.0914C73.5028 14.9498 73.5832 14.8196 73.6622 14.6823C74.5196 13.1914 75.3774 11.7004 76.2358 10.2095L78.8207 5.71122C79.5399 4.45996 80.26 3.20918 80.9811 1.95887C81.0651 1.79156 81.1627 1.63153 81.273 1.48045C81.273 1.48045 81.2942 1.46629 81.2984 1.46912C81.3026 1.47196 81.3365 1.49036 81.3393 1.50451C81.3429 1.54406 81.3429 1.58386 81.3393 1.62341V3.64183" fill="#1B1B1B"></path><path d="M62.3662 12.2492V1.46921C62.3662 1.37012 62.3662 1.27104 62.3662 1.17196C62.3662 1.09977 62.4127 1.06863 62.4818 1.06439C62.5509 1.06014 62.5806 1.06439 62.6229 1.06439H64.8439C64.9116 1.06439 64.9849 1.06439 65.0498 1.0743C65.069 1.07762 65.0866 1.08717 65.0998 1.10149C65.1131 1.11581 65.1213 1.13411 65.1232 1.15356C65.1232 1.18328 65.1232 1.21301 65.1232 1.24273C65.1232 1.31209 65.1232 1.38428 65.1232 1.4508V5.96042C65.1232 6.00996 65.1232 6.0595 65.1232 6.10196C65.1267 6.21101 65.1055 6.31944 65.0611 6.41902C64.8947 6.8111 64.7509 7.21167 64.6197 7.61507C64.4024 8.28239 64.2309 8.96388 64.1064 9.65473C64.019 10.1416 63.9569 10.6314 63.9132 11.1254C63.8577 11.7555 63.8431 12.3886 63.8695 13.0207C63.8695 13.1622 63.8695 13.3179 63.885 13.4651C63.9245 13.9082 63.964 14.3512 64.026 14.7914C64.1395 15.5343 64.3044 16.2683 64.5196 16.9882C64.6671 17.4806 64.8403 17.9649 65.0385 18.439C65.093 18.5659 65.1203 18.7028 65.1189 18.841C65.1189 20.2762 65.1189 21.7115 65.1189 23.1468C65.1189 23.2062 65.1189 23.2657 65.1189 23.3251C65.1175 23.3498 65.1065 23.3729 65.0883 23.3895C65.0701 23.4062 65.0462 23.4151 65.0216 23.4143C64.9624 23.4143 64.9032 23.4143 64.8439 23.4143H62.6398C62.5904 23.4143 62.5411 23.4143 62.4917 23.4143C62.4127 23.4143 62.369 23.3916 62.3676 23.2869C62.3662 23.1822 62.3676 23.0887 62.3676 22.9897V12.2492" fill="#1B1B1B"></path><path d="M81.6144 12.2219V1.47156C81.6144 1.36257 81.6144 1.25359 81.6144 1.1446C81.6203 1.12626 81.6308 1.10974 81.6449 1.09661C81.659 1.08349 81.6761 1.07418 81.6948 1.06958C81.754 1.06958 81.8132 1.0625 81.8725 1.0625H84.1288C84.188 1.0625 84.2472 1.0625 84.3051 1.07241C84.3244 1.07515 84.3423 1.0843 84.3558 1.09841C84.3693 1.11252 84.3778 1.13077 84.3798 1.15026C84.3798 1.17998 84.3798 1.20971 84.3798 1.23943V5.30742C84.3798 5.35697 84.3798 5.40651 84.3798 5.44897C84.385 5.56757 84.3597 5.68551 84.3065 5.79151C83.9347 6.57849 83.6332 7.39698 83.4054 8.2374C83.2489 8.7993 83.1246 9.36971 83.0331 9.94584C82.964 10.3945 82.9146 10.8461 82.8808 11.3004C82.8511 11.7052 82.8385 12.1101 82.8385 12.5149C82.8385 12.8518 82.8554 13.1872 82.8822 13.5227C82.9123 13.886 82.9517 14.2493 83.0006 14.6126C83.2163 16.1429 83.6583 17.6323 84.3121 19.0316C84.3589 19.1296 84.3825 19.2371 84.3812 19.3458C84.3812 20.632 84.3812 21.9186 84.3812 23.2057C84.3812 23.2454 84.3812 23.285 84.3812 23.3246C84.3801 23.3493 84.3695 23.3726 84.3516 23.3895C84.3337 23.4064 84.3099 23.4156 84.2853 23.4152C84.2364 23.4152 84.1871 23.4152 84.1373 23.4152H81.8598C81.8005 23.4152 81.7427 23.4152 81.6835 23.4053C81.6688 23.4032 81.6551 23.3964 81.6445 23.386C81.6339 23.3755 81.6268 23.362 81.6243 23.3473C81.6168 23.3187 81.6135 23.2891 81.6144 23.2595V12.2219Z" fill="#1B1B1B"></path><path d="M109.057 12.2349V1.13643C109.057 1.03735 109.057 0.939684 109.057 0.840603C109.058 0.8157 109.07 0.792434 109.088 0.775586C109.106 0.758738 109.13 0.749587 109.155 0.750014H109.392C113.675 0.750014 117.958 0.750014 122.243 0.750014C122.322 0.750014 122.401 0.750014 122.479 0.750014C122.504 0.751445 122.527 0.762171 122.544 0.780031C122.561 0.797892 122.57 0.821559 122.571 0.846265C122.571 1.08406 122.571 1.32185 122.571 1.55399C122.57 1.58357 122.563 1.6127 122.551 1.63968C122.539 1.66666 122.522 1.69095 122.5 1.7111C122.379 1.84132 122.258 1.97154 122.14 2.1046C121.652 2.66295 121.205 3.25565 120.801 3.87815C120.758 3.94468 120.716 4.01262 120.668 4.0749C120.651 4.09798 120.625 4.11324 120.596 4.11736C120.519 4.11736 120.438 4.11736 120.359 4.11736C119.777 4.11736 119.196 4.11736 118.614 4.11736H113.052C112.953 4.11736 112.854 4.11736 112.756 4.11736C112.736 4.11973 112.718 4.12903 112.705 4.14358C112.692 4.15813 112.684 4.17696 112.684 4.19663V4.2858V10.1953C112.684 10.5718 112.644 10.5307 113.011 10.5322H118.016C118.085 10.5322 118.157 10.5322 118.223 10.5322C118.385 10.5322 118.408 10.5605 118.394 10.7204C118.334 11.3011 118.307 11.8847 118.312 12.4685C118.312 12.7955 118.323 13.1224 118.357 13.448C118.368 13.5556 118.372 13.6645 118.378 13.7735C118.384 13.8825 118.361 13.9151 118.254 13.9222H113.067H112.771C112.747 13.9236 112.724 13.9344 112.707 13.9524C112.691 13.9703 112.682 13.994 112.682 14.0184C112.682 14.0481 112.682 14.0779 112.682 14.1076V20.136C112.683 20.1835 112.688 20.2308 112.696 20.2775C112.703 20.2956 112.716 20.3107 112.733 20.32C112.751 20.3287 112.77 20.333 112.789 20.3327H113.086H120.221C120.592 20.3327 120.503 20.2818 120.708 20.6031C121.205 21.3895 121.772 22.1299 122.4 22.8154C122.446 22.8664 122.492 22.9173 122.541 22.9683C122.567 22.9977 122.582 23.0362 122.58 23.0759C122.58 23.2641 122.58 23.4524 122.58 23.642C122.577 23.6615 122.567 23.6792 122.552 23.6927C122.538 23.7062 122.52 23.7147 122.5 23.7171C122.472 23.7171 122.442 23.7241 122.413 23.7241H109.464C109.356 23.7241 109.247 23.7241 109.138 23.7171C109.119 23.7134 109.102 23.704 109.088 23.6901C109.074 23.6763 109.065 23.6585 109.061 23.6392C109.061 23.5415 109.061 23.4425 109.061 23.3434V12.2349H109.057ZM109.363 12.2265V23.2669C109.361 23.2965 109.364 23.3262 109.373 23.3547C109.384 23.3773 109.409 23.4085 109.43 23.4113C109.518 23.4201 109.607 23.4238 109.695 23.4226C110.465 23.4226 111.235 23.4226 112.004 23.4226C112.404 23.4226 112.366 23.4693 112.366 23.0546V1.44641C112.366 1.37706 112.366 1.30487 112.366 1.23834C112.366 1.20862 112.366 1.17889 112.366 1.15059C112.361 1.13172 112.351 1.11445 112.338 1.10036C112.324 1.08627 112.307 1.0758 112.289 1.0699C112.249 1.0699 112.21 1.06283 112.17 1.06283H109.559C109.519 1.06402 109.48 1.06733 109.44 1.07274C109.421 1.07683 109.404 1.08684 109.391 1.10133C109.378 1.11583 109.37 1.13406 109.368 1.15342C109.368 1.26241 109.368 1.3714 109.368 1.47897V12.2265M117.477 1.0515H113.06C112.961 1.0515 112.863 1.0515 112.764 1.0515C112.739 1.05228 112.716 1.06181 112.697 1.0784C112.679 1.09498 112.667 1.11755 112.664 1.14209C112.664 1.18173 112.664 1.22136 112.664 1.26099V3.58232C112.664 3.63186 112.664 3.6814 112.671 3.72387C112.673 3.74377 112.681 3.76255 112.694 3.77718C112.708 3.79181 112.726 3.80145 112.746 3.80455C112.835 3.80455 112.923 3.80455 113.011 3.80455H120.177C120.245 3.80455 120.318 3.80455 120.383 3.80455C120.418 3.8065 120.452 3.79847 120.483 3.78142C120.513 3.76437 120.538 3.739 120.554 3.7083C120.596 3.64177 120.64 3.57525 120.685 3.51014C121.12 2.86215 121.602 2.24713 122.126 1.67005C122.282 1.5002 122.267 1.52851 122.267 1.30487C122.267 1.24542 122.267 1.18597 122.267 1.12652C122.264 1.10708 122.254 1.08934 122.239 1.07586C122.225 1.06237 122.207 1.05384 122.187 1.0515C122.09 1.0515 121.991 1.0416 121.892 1.0416H117.471M117.463 23.417H121.902C121.991 23.417 122.08 23.417 122.169 23.417C122.193 23.4174 122.217 23.4081 122.234 23.3911C122.252 23.3742 122.262 23.3509 122.263 23.3264C122.271 23.2729 122.267 23.2182 122.25 23.1668C122.233 23.1154 122.204 23.0688 122.166 23.0306C121.959 22.8055 121.761 22.572 121.567 22.3356C121.198 21.8835 120.854 21.4109 120.538 20.9201C120.496 20.8536 120.452 20.7885 120.406 20.7234C120.395 20.7072 120.38 20.6939 120.362 20.6848C120.345 20.6757 120.325 20.6709 120.306 20.671H120.099H112.936C112.654 20.671 112.654 20.671 112.654 20.9541V23.1495C112.654 23.199 112.654 23.2485 112.654 23.2981C112.654 23.3887 112.689 23.4241 112.778 23.4255C112.867 23.4269 112.956 23.4255 113.045 23.4255H117.454M115.38 10.8676H112.96H112.753C112.728 10.8704 112.706 10.882 112.69 10.9003C112.673 10.9185 112.664 10.9421 112.664 10.9667C112.664 11.0262 112.664 11.0856 112.664 11.1451V13.3418C112.664 13.6249 112.664 13.6136 112.946 13.6136H117.769C117.828 13.6136 117.887 13.6136 117.947 13.6136C117.966 13.6118 117.984 13.6039 117.999 13.5909C118.013 13.5779 118.023 13.5605 118.027 13.5414C118.032 13.5024 118.035 13.4632 118.035 13.4239C118.035 13.2555 118.021 13.087 118.017 12.92C117.985 12.2875 118.001 11.6535 118.064 11.0233C118.064 11.0134 118.064 11.0035 118.064 10.9936C118.066 10.979 118.066 10.964 118.063 10.9495C118.059 10.9351 118.052 10.9216 118.043 10.91C118.034 10.8984 118.022 10.889 118.009 10.8824C117.996 10.8758 117.981 10.8722 117.966 10.8719C117.877 10.8719 117.788 10.8719 117.7 10.8719H115.388" fill="#1B1B1B"></path><path d="M109.363 12.2261V1.47864C109.363 1.37107 109.363 1.26208 109.363 1.15309C109.365 1.13366 109.372 1.11532 109.385 1.10078C109.398 1.08624 109.416 1.07629 109.435 1.07241C109.474 1.067 109.514 1.06369 109.553 1.0625H112.158C112.197 1.0625 112.237 1.0625 112.276 1.06958C112.295 1.07547 112.312 1.08594 112.325 1.10003C112.339 1.11412 112.349 1.13139 112.354 1.15026C112.354 1.17857 112.354 1.20829 112.354 1.23802C112.354 1.30737 112.354 1.37956 112.354 1.44609V23.0571C112.354 23.4718 112.392 23.4251 111.991 23.4251H109.696C109.607 23.4251 109.518 23.4251 109.43 23.4138C109.409 23.4138 109.384 23.3798 109.373 23.3572C109.364 23.3287 109.361 23.299 109.363 23.2694V12.229" fill="#1B1B1B"></path><path d="M117.471 1.05078H121.884C121.983 1.05078 122.081 1.05078 122.179 1.06069C122.198 1.06281 122.217 1.07127 122.231 1.08479C122.246 1.09831 122.255 1.11618 122.259 1.13571C122.259 1.19516 122.259 1.25462 122.259 1.31407C122.259 1.53772 122.27 1.50941 122.118 1.67928C121.593 2.25639 121.111 2.87144 120.677 3.51946C120.632 3.58458 120.588 3.65111 120.545 3.71764C120.529 3.74834 120.504 3.77371 120.474 3.79076C120.444 3.80782 120.409 3.81584 120.375 3.81389C120.307 3.81389 120.234 3.81389 120.169 3.81389H113.006C112.919 3.81389 112.83 3.81389 112.741 3.81389C112.721 3.81079 112.703 3.80115 112.69 3.78652C112.676 3.77189 112.668 3.75312 112.666 3.73321C112.666 3.68508 112.659 3.63554 112.659 3.59166V1.26594C112.659 1.22631 112.659 1.18667 112.659 1.14704C112.662 1.12238 112.674 1.09964 112.692 1.083C112.711 1.06636 112.735 1.05693 112.759 1.05644C112.858 1.05644 112.957 1.05644 113.055 1.05644H117.467" fill="#1B1B1B"></path><path d="M117.462 23.4254H113.05C112.963 23.4254 112.874 23.4254 112.785 23.4254C112.696 23.4254 112.664 23.3886 112.661 23.298C112.661 23.2485 112.661 23.1989 112.661 23.1494V20.9511C112.661 20.668 112.661 20.668 112.943 20.668H120.106H120.312C120.332 20.6679 120.351 20.6726 120.369 20.6817C120.387 20.6909 120.402 20.7041 120.413 20.7203C120.46 20.7855 120.504 20.8506 120.546 20.9171C120.861 21.4086 121.204 21.8812 121.574 22.3326C121.769 22.569 121.966 22.8026 122.173 23.0277C122.212 23.0659 122.24 23.1126 122.257 23.1639C122.274 23.2153 122.279 23.27 122.271 23.3235C122.27 23.348 122.26 23.3713 122.242 23.3882C122.224 23.4052 122.201 23.4145 122.176 23.4141C122.088 23.4141 121.999 23.4141 121.91 23.4141H117.462" fill="#1B1B1B"></path><path d="M115.388 10.8672H117.698C117.786 10.8672 117.875 10.8672 117.965 10.8672C117.979 10.8675 117.994 10.8711 118.007 10.8777C118.021 10.8843 118.032 10.8937 118.042 10.9053C118.051 10.9169 118.057 10.9304 118.061 10.9448C118.065 10.9593 118.065 10.9743 118.062 10.9889C118.062 10.9988 118.062 11.0087 118.062 11.0186C117.999 11.6489 117.984 12.2829 118.015 12.9155C118.015 13.0825 118.028 13.2509 118.034 13.4194C118.033 13.4587 118.03 13.4979 118.025 13.5369C118.021 13.556 118.012 13.5733 117.997 13.5863C117.983 13.5994 117.964 13.6073 117.945 13.6091C117.886 13.6091 117.826 13.6091 117.767 13.6091H112.941C112.659 13.6091 112.659 13.6091 112.659 13.3373V11.1517C112.659 11.0923 112.659 11.0328 112.659 10.9734C112.659 10.9488 112.669 10.9252 112.685 10.9069C112.701 10.8886 112.724 10.877 112.748 10.8743H112.955H115.384" fill="#1B1B1B"></path><path d="M45.8052 12.2225V1.11694C45.8052 1.01786 45.8052 0.918778 45.8122 0.821112C45.8152 0.801808 45.8244 0.784012 45.8384 0.77046C45.8524 0.756907 45.8704 0.748347 45.8898 0.746094C45.949 0.746094 46.0082 0.746094 46.0675 0.746094C47.1825 0.746094 48.2979 0.746094 49.4139 0.746094C49.4827 0.746582 49.5515 0.751309 49.6197 0.760248C49.6288 0.763283 49.637 0.768473 49.6436 0.775374C49.6503 0.782275 49.6551 0.790682 49.6578 0.79988C49.6688 0.837146 49.675 0.875682 49.6762 0.914532C49.6762 1.18205 49.686 1.44816 49.686 1.71567C49.686 2.96268 49.686 4.20969 49.6945 5.4567C49.6956 5.61484 49.6624 5.77133 49.5972 5.91531C49.1815 6.87752 48.8676 7.88092 48.6608 8.90898C48.4265 10.0732 48.3243 11.2603 48.3562 12.4476C48.3647 12.7831 48.3901 13.1199 48.4211 13.454C48.4802 14.0848 48.5791 14.7112 48.7172 15.3294C48.9197 16.2368 49.2029 17.124 49.5633 17.9806C49.5831 18.0259 49.6014 18.0726 49.6226 18.1221C49.6734 18.2294 49.6976 18.3474 49.6931 18.4661C49.6846 19.0322 49.6818 19.5984 49.6776 20.1646C49.6776 20.2042 49.6776 20.2425 49.6776 20.2821C49.6797 20.3015 49.6875 20.3198 49.7001 20.3347C49.7126 20.3496 49.7294 20.3603 49.7481 20.3656C49.7777 20.3656 49.8073 20.3741 49.8369 20.3741H58.8975C59.0526 20.3741 59.0709 20.3939 59.0737 20.5383C59.0744 20.5482 59.0744 20.5581 59.0737 20.568V23.5673C59.0737 23.5971 59.0737 23.6268 59.0737 23.6565C59.0742 23.6812 59.0656 23.7052 59.0494 23.7237C59.0332 23.7423 59.0107 23.7542 58.9863 23.757C58.9567 23.757 58.9271 23.757 58.8975 23.757H46.2C45.7417 23.757 45.8066 23.7995 45.8052 23.3635C45.8052 19.6503 45.8052 15.9386 45.8052 12.2282M46.1112 10.7462V19.9466C46.1112 20.0358 46.1112 20.125 46.1112 20.2141C46.1125 20.2435 46.1154 20.2728 46.1196 20.3019C46.1236 20.3213 46.1334 20.3389 46.1479 20.3523C46.1623 20.3658 46.1805 20.3744 46.2 20.3769C46.2592 20.3769 46.3185 20.3769 46.3777 20.3769H49.1304H49.2785C49.3029 20.3744 49.3257 20.3634 49.3429 20.3458C49.3602 20.3283 49.3708 20.3052 49.373 20.2807C49.373 20.2212 49.373 20.1618 49.373 20.1023C49.373 19.5786 49.373 19.0535 49.373 18.5298C49.3765 18.3831 49.3456 18.2376 49.2827 18.1051C49.2531 18.0429 49.2277 17.9777 49.2023 17.914C49.0613 17.5658 48.9316 17.2134 48.8131 16.8553C48.6292 16.2919 48.4767 15.7187 48.3562 15.1384C48.2702 14.7222 48.2025 14.3018 48.1531 13.88C48.1207 13.6139 48.1052 13.3478 48.0784 13.0831C48.0544 12.8467 48.0431 12.6104 48.0417 12.3754C48.0265 11.8084 48.0477 11.2411 48.1052 10.6769C48.1193 10.5594 48.1137 10.4391 48.1306 10.323C48.1954 9.85308 48.2519 9.38173 48.3492 8.91605C48.4645 8.34242 48.6104 7.77542 48.7863 7.21752C48.9346 6.74629 49.1064 6.28286 49.301 5.82896C49.3599 5.70302 49.387 5.56449 49.38 5.42556C49.38 5.39584 49.38 5.36611 49.38 5.33639V1.24575C49.38 1.21602 49.38 1.18771 49.38 1.15799C49.3767 1.13344 49.3648 1.11088 49.3465 1.09429C49.3281 1.07771 49.3046 1.06818 49.2799 1.0674H49.1614H46.3114C46.2723 1.06812 46.2332 1.07095 46.1944 1.07589C46.1753 1.08066 46.1581 1.09079 46.1446 1.10508C46.1311 1.11938 46.1219 1.13724 46.1182 1.15657C46.1182 1.26556 46.1182 1.37455 46.1182 1.48213C46.1182 4.57063 46.1182 7.65819 46.1182 10.7448M54.21 20.6699H49.8299C49.8003 20.6699 49.7706 20.6699 49.741 20.677C49.7216 20.679 49.7034 20.6875 49.6894 20.7011C49.6753 20.7147 49.6662 20.7326 49.6635 20.752C49.6635 20.8115 49.6564 20.8695 49.6564 20.9289V23.1611C49.6564 23.2206 49.6564 23.28 49.6564 23.3395C49.658 23.3588 49.6659 23.3771 49.6789 23.3914C49.6919 23.4057 49.7093 23.4153 49.7283 23.4187C49.8172 23.4187 49.906 23.4258 49.9949 23.4258H58.4307C58.5096 23.4258 58.5886 23.4258 58.6676 23.4258C58.6798 23.426 58.6918 23.4237 58.7031 23.4192C58.7144 23.4147 58.7247 23.4079 58.7333 23.3994C58.742 23.3908 58.7489 23.3806 58.7536 23.3693C58.7582 23.3581 58.7607 23.346 58.7607 23.3338C58.7607 23.2743 58.7607 23.2149 58.7607 23.1554V20.953C58.7607 20.8936 58.7607 20.8341 58.7607 20.7747C58.7616 20.7623 58.7601 20.7499 58.756 20.7382C58.752 20.7264 58.7457 20.7157 58.7373 20.7065C58.729 20.6973 58.7189 20.69 58.7076 20.6849C58.6964 20.6799 58.6842 20.6772 58.6718 20.677C58.5745 20.677 58.4758 20.677 58.3771 20.677H54.2029M47.7498 23.4286H49.1389C49.1975 23.4284 49.256 23.4232 49.3137 23.4131C49.3292 23.4131 49.3462 23.3904 49.3546 23.3748C49.3638 23.3569 49.3682 23.3369 49.3673 23.3168C49.3673 23.239 49.3673 23.1597 49.3673 23.0804V21.0323C49.3673 20.953 49.3673 20.8737 49.3673 20.7945C49.3673 20.7152 49.3292 20.6827 49.2616 20.6798C49.1939 20.677 49.1205 20.6798 49.0557 20.6798H46.4031C46.3439 20.6798 46.2846 20.6798 46.2254 20.6798C46.2059 20.6808 46.1867 20.6856 46.169 20.694C46.1519 20.7026 46.1381 20.7165 46.1295 20.7336C46.1193 20.7613 46.1141 20.7905 46.114 20.82C46.114 21.64 46.114 22.46 46.114 23.28C46.114 23.2998 46.114 23.3196 46.114 23.3395C46.1161 23.3588 46.1244 23.377 46.1376 23.3913C46.1508 23.4056 46.1682 23.4152 46.1873 23.4187C46.2564 23.4187 46.3283 23.4272 46.3932 23.4272H47.7541" fill="#1B1B1B"></path><path d="M46.1113 10.7399C46.1113 7.65329 46.1113 4.56573 46.1113 1.47723C46.1113 1.36965 46.1113 1.26066 46.1113 1.15167C46.1149 1.13227 46.124 1.11432 46.1375 1.1C46.151 1.08568 46.1684 1.0756 46.1875 1.07099C46.2263 1.06605 46.2654 1.06322 46.3045 1.0625H49.1461H49.2645C49.2892 1.06328 49.3128 1.07281 49.3311 1.08939C49.3495 1.10598 49.3613 1.12854 49.3647 1.15309C49.3647 1.18281 49.3647 1.21112 49.3647 1.24085V5.3414C49.3647 5.37112 49.3647 5.40084 49.3647 5.43057C49.3717 5.5695 49.3445 5.70802 49.2857 5.83397C49.0958 6.28813 48.9287 6.75156 48.7851 7.22252C48.6091 7.78043 48.4632 8.34743 48.3479 8.92106C48.2506 9.38674 48.1942 9.85809 48.1293 10.328C48.1124 10.4441 48.118 10.5644 48.1039 10.6819C48.0502 11.243 48.0323 11.8071 48.0504 12.3705C48.0504 12.6083 48.063 12.8447 48.087 13.0782C48.1138 13.3429 48.1293 13.609 48.1618 13.8751C48.2111 14.2998 48.2788 14.7244 48.3648 15.1335C48.4854 15.7129 48.6379 16.2851 48.8217 16.8476C48.9402 17.2057 49.0671 17.5553 49.2109 17.9063C49.2363 17.97 49.2617 18.0351 49.2913 18.0974C49.3542 18.2299 49.3851 18.3753 49.3816 18.522C49.3816 19.0458 49.3816 19.5709 49.3816 20.0946C49.3816 20.154 49.3816 20.2135 49.3816 20.2729C49.3794 20.2975 49.3688 20.3205 49.3516 20.3381C49.3343 20.3557 49.3115 20.3667 49.2871 20.3692H49.139H46.3793C46.32 20.3692 46.2608 20.3692 46.2016 20.3692C46.1821 20.3666 46.1638 20.358 46.1494 20.3446C46.135 20.3312 46.1251 20.3135 46.1212 20.2942C46.1169 20.2651 46.1141 20.2358 46.1127 20.2064C46.1127 20.1172 46.1127 20.0281 46.1127 19.9389V10.7385" fill="#1B1B1B"></path><path d="M54.2103 20.668H58.3847C58.4834 20.668 58.5821 20.668 58.6794 20.668C58.6918 20.6681 58.704 20.6708 58.7153 20.6759C58.7265 20.681 58.7366 20.6883 58.745 20.6975C58.7533 20.7066 58.7597 20.7174 58.7637 20.7291C58.7677 20.7409 58.7693 20.7533 58.7683 20.7656C58.7683 20.8251 58.7683 20.8845 58.7683 20.944V23.1395C58.7683 23.1989 58.7683 23.2584 58.7683 23.3178C58.7683 23.33 58.7659 23.3421 58.7612 23.3534C58.7565 23.3646 58.7496 23.3748 58.741 23.3834C58.7323 23.392 58.722 23.3987 58.7107 23.4033C58.6995 23.4078 58.6874 23.41 58.6752 23.4098C58.5962 23.4098 58.5173 23.4098 58.4383 23.4098H50.0006C49.9117 23.4098 49.8229 23.4098 49.734 23.4028C49.715 23.3994 49.6976 23.3898 49.6846 23.3754C49.6716 23.3611 49.6637 23.3428 49.6621 23.3235C49.6621 23.264 49.6621 23.2046 49.6621 23.1451V20.9327C49.6621 20.8732 49.6621 20.8138 49.6692 20.7557C49.6719 20.7363 49.681 20.7184 49.6951 20.7048C49.7091 20.6912 49.7273 20.6827 49.7467 20.6807C49.7763 20.6807 49.806 20.6736 49.8356 20.6736H54.2159" fill="#1B1B1B"></path><path d="M47.7573 23.4253H46.3964C46.3273 23.4253 46.2554 23.4253 46.1905 23.4168C46.1714 23.4132 46.154 23.4036 46.1408 23.3893C46.1276 23.3751 46.1193 23.3569 46.1172 23.3375C46.1172 23.3177 46.1172 23.2979 46.1172 23.2781C46.1172 22.458 46.1172 21.6375 46.1172 20.8165C46.1174 20.7875 46.1227 20.7587 46.1327 20.7315C46.1413 20.7144 46.1551 20.7005 46.1722 20.6919C46.1899 20.6835 46.2091 20.6787 46.2286 20.6777C46.2878 20.6777 46.3471 20.6777 46.4063 20.6777H49.0647C49.1338 20.6777 49.2057 20.6777 49.2706 20.6777C49.3355 20.6777 49.3735 20.7188 49.3764 20.7924C49.3792 20.866 49.3764 20.9509 49.3764 21.0302V23.0742C49.3764 23.1535 49.3764 23.2328 49.3764 23.3106C49.3772 23.3307 49.3728 23.3507 49.3637 23.3687C49.3552 23.3842 49.3383 23.4055 49.3228 23.4069C49.265 23.417 49.2065 23.4222 49.1479 23.4224H47.7588" fill="#1B1B1B"></path><path d="M126.067 12.2195C126.067 8.51762 126.067 4.81622 126.067 1.1153C126.067 1.01764 126.067 0.918555 126.067 0.819474C126.071 0.800148 126.08 0.782441 126.095 0.768943C126.109 0.755445 126.127 0.746864 126.146 0.744455C126.184 0.744455 126.224 0.744455 126.263 0.744455C127.33 0.744455 128.396 0.744455 129.462 0.744455C129.509 0.742966 129.556 0.746764 129.603 0.755779C129.629 0.766253 129.651 0.786491 129.663 0.812397C129.673 0.839995 129.678 0.869389 129.676 0.898739C129.676 1.02754 129.676 1.15635 129.676 1.28516C129.676 2.57038 129.676 3.85655 129.676 5.14366C129.676 5.20311 129.676 5.26256 129.676 5.32201C129.678 5.41114 129.658 5.49941 129.62 5.57962C129.491 5.87828 129.362 6.17835 129.245 6.48268C128.699 7.90683 128.367 9.40402 128.257 10.9258C128.22 11.4987 128.213 12.0733 128.239 12.6469C128.317 14.5502 128.747 16.4222 129.508 18.1672C129.567 18.2801 129.614 18.3987 129.649 18.5211C129.666 18.6486 129.67 18.7777 129.661 18.9061C129.661 19.3123 129.661 19.7171 129.661 20.1233C129.658 20.1829 129.661 20.2426 129.669 20.3017C129.671 20.3166 129.678 20.3305 129.688 20.3408C129.699 20.3512 129.713 20.3574 129.728 20.3583C129.797 20.3583 129.869 20.3682 129.934 20.3682C130.23 20.3682 130.526 20.3682 130.823 20.3682H138.935C139.033 20.3682 139.131 20.3682 139.23 20.3682C139.25 20.3702 139.268 20.3786 139.282 20.3922C139.297 20.4058 139.306 20.4237 139.309 20.4432C139.309 20.4928 139.309 20.5409 139.309 20.5848V23.5247C139.309 23.5742 139.309 23.6223 139.299 23.6662C139.289 23.7101 139.268 23.7157 139.241 23.7256C139.213 23.7342 139.184 23.7385 139.154 23.7384H126.311C126.252 23.7399 126.193 23.7356 126.135 23.7256C126.113 23.7256 126.09 23.6888 126.079 23.6648C126.07 23.6368 126.067 23.6076 126.069 23.5784C126.069 23.4893 126.069 23.4001 126.069 23.3109V12.2195M126.373 12.2195V22.9967C126.373 23.1057 126.373 23.2133 126.373 23.3222C126.372 23.3345 126.374 23.3469 126.378 23.3585C126.382 23.3702 126.388 23.3809 126.397 23.3899C126.405 23.399 126.415 23.4062 126.427 23.4111C126.438 23.416 126.45 23.4185 126.462 23.4185C126.511 23.4185 126.56 23.4185 126.61 23.4185H129.128C129.176 23.4185 129.223 23.4185 129.269 23.4185C129.287 23.4147 129.305 23.4058 129.319 23.3929C129.333 23.3799 129.343 23.3633 129.349 23.3449C129.374 23.2186 129.385 23.09 129.381 22.9613C129.381 21.5855 129.381 20.2097 129.381 18.8339C129.381 18.8041 129.381 18.7744 129.381 18.7447C129.387 18.6362 129.365 18.5281 129.318 18.4305C129.214 18.1955 129.115 17.9577 129.019 17.7227C128.687 16.8865 128.43 16.022 128.252 15.1395C128.177 14.7715 128.111 14.4035 128.066 14.0284C128.033 13.7241 127.992 13.4212 127.967 13.1155C127.947 12.8692 127.944 12.6229 127.933 12.3752C127.933 12.3355 127.933 12.2959 127.933 12.2577C127.933 12.1162 127.918 11.9605 127.923 11.8118C127.937 11.4764 127.953 11.1409 127.978 10.8069C128.012 10.3723 128.066 9.94203 128.132 9.51173C128.25 8.76957 128.42 8.03684 128.642 7.31921C128.826 6.72348 129.047 6.14008 129.304 5.57254C129.368 5.4493 129.397 5.31075 129.388 5.17197C129.388 5.14225 129.388 5.11252 129.388 5.0828V1.54418C129.388 1.48473 129.388 1.42529 129.388 1.36584C129.388 1.30639 129.379 1.24835 129.37 1.19032C129.356 1.10115 129.318 1.06576 129.238 1.06152C129.198 1.06152 129.159 1.06152 129.119 1.06152H126.603C126.554 1.06152 126.505 1.06152 126.462 1.07001C126.443 1.07233 126.424 1.0811 126.41 1.09493C126.396 1.10876 126.387 1.12688 126.385 1.14644C126.385 1.25543 126.385 1.36442 126.385 1.472V12.2209M134.342 20.6683H129.81C129.781 20.6693 129.752 20.6746 129.724 20.6839C129.715 20.6873 129.707 20.6926 129.7 20.6994C129.693 20.7062 129.688 20.7144 129.685 20.7235C129.675 20.782 129.67 20.8411 129.669 20.9004V23.1878C129.669 23.2359 129.669 23.2854 129.678 23.3293C129.68 23.3485 129.689 23.3663 129.703 23.3798C129.717 23.3934 129.734 23.402 129.754 23.4043C129.852 23.4043 129.951 23.4114 130.05 23.4114H138.669H138.934C138.954 23.4109 138.974 23.4061 138.992 23.3973C139.009 23.3888 139.03 23.3732 139.031 23.3576C139.04 23.299 139.044 23.2399 139.044 23.1807C139.044 22.4173 139.044 21.6548 139.044 20.8933C139.044 20.8438 139.044 20.7957 139.044 20.7518C139.041 20.7322 139.032 20.7141 139.018 20.7003C139.004 20.6864 138.986 20.6777 138.966 20.6754C138.868 20.6754 138.77 20.6683 138.672 20.6683H134.348" fill="#1B1B1B"></path><path d="M126.371 12.2219V1.47298C126.371 1.36541 126.371 1.25642 126.371 1.14743C126.374 1.12787 126.383 1.10975 126.397 1.09592C126.411 1.08208 126.429 1.07332 126.449 1.07099C126.497 1.07099 126.546 1.0625 126.59 1.0625H129.107C129.146 1.0625 129.186 1.0625 129.225 1.0625C129.306 1.0625 129.344 1.10213 129.358 1.19131C129.366 1.24934 129.373 1.30879 129.376 1.36682C129.379 1.42485 129.376 1.48572 129.376 1.54517V5.08378C129.376 5.11351 129.376 5.14323 129.376 5.17296C129.385 5.31174 129.356 5.45029 129.292 5.57353C129.034 6.14106 128.814 6.72446 128.63 7.32019C128.408 8.03783 128.237 8.77055 128.12 9.51272C128.053 9.93735 128 10.3733 127.966 10.8079C127.941 11.1419 127.925 11.4774 127.911 11.8142C127.911 11.9558 127.911 12.1101 127.921 12.2587C127.921 12.2969 127.921 12.3365 127.921 12.3762C127.932 12.6239 127.935 12.8702 127.955 13.1164C127.98 13.4222 128.021 13.7251 128.053 14.0308C128.094 14.4045 128.165 14.7725 128.24 15.1405C128.418 16.0229 128.674 16.8875 129.007 17.7237C129.103 17.9629 129.201 18.2007 129.306 18.4314C129.353 18.5291 129.375 18.6372 129.369 18.7457C129.369 18.7754 129.369 18.8051 129.369 18.8348C129.369 20.2107 129.369 21.5865 129.369 22.9623C129.372 23.091 129.362 23.2196 129.337 23.3459C129.331 23.3643 129.321 23.3809 129.307 23.3938C129.293 23.4068 129.275 23.4157 129.256 23.4195C129.207 23.4195 129.16 23.4195 129.115 23.4195H126.614C126.564 23.4195 126.514 23.4195 126.466 23.4195C126.453 23.4195 126.441 23.417 126.43 23.4121C126.419 23.4072 126.408 23.4 126.4 23.3909C126.392 23.3819 126.385 23.3712 126.381 23.3595C126.377 23.3479 126.376 23.3355 126.377 23.3232C126.377 23.2142 126.377 23.1067 126.377 22.9977V12.2219" fill="#1B1B1B"></path><path d="M134.342 20.668H138.666C138.765 20.668 138.862 20.668 138.961 20.675C138.981 20.6774 138.999 20.6861 139.013 20.7C139.027 20.7138 139.036 20.7319 139.039 20.7515C139.039 20.801 139.039 20.8492 139.039 20.893C139.039 21.6565 139.039 22.419 139.039 23.1805C139.039 23.2397 139.034 23.2989 139.026 23.3575C139.026 23.373 139.003 23.3886 138.986 23.3971C138.968 23.4059 138.949 23.4107 138.929 23.4113H138.664H130.044C129.945 23.4113 129.846 23.4113 129.748 23.4042C129.729 23.4019 129.711 23.3933 129.697 23.3797C129.683 23.3661 129.674 23.3484 129.672 23.3292C129.672 23.2796 129.663 23.2301 129.663 23.1876V20.9072C129.664 20.8479 129.669 20.7888 129.679 20.7303C129.682 20.7212 129.687 20.713 129.694 20.7062C129.701 20.6993 129.709 20.694 129.718 20.6906C129.746 20.6813 129.775 20.6761 129.804 20.675H134.337" fill="#1B1B1B"></path><path d="M18.9619 11.9522C19.0141 8.80287 20.0746 6.05124 22.2293 3.74265C23.8368 2.01763 25.9249 0.818983 28.2213 0.30311C28.9222 0.135761 29.6378 0.0376283 30.3577 0.0101131C30.9298 -0.0130151 31.5028 0.00353815 32.0725 0.059654C35.1315 0.366523 37.9544 1.8466 39.9527 4.19134C39.9847 4.22882 40.0139 4.26856 40.0402 4.31024C40.044 4.31893 40.046 4.32833 40.046 4.33784C40.046 4.34735 40.044 4.35675 40.0402 4.36544C40.0106 4.42772 39.9767 4.48859 39.9415 4.54804C39.5266 5.2443 39.1668 5.97219 38.8655 6.72499C38.7456 7.0279 38.6384 7.33647 38.5256 7.6422C38.5216 7.64816 38.5164 7.65318 38.5103 7.65691C38.5042 7.66064 38.4973 7.66299 38.4902 7.6638C38.4831 7.6646 38.4759 7.66385 38.4691 7.66159C38.4623 7.65933 38.4561 7.65561 38.4509 7.65069C38.4378 7.6363 38.4256 7.62118 38.4142 7.6054C38.3776 7.54595 38.3437 7.4865 38.307 7.42705C37.0379 5.38032 35.2286 4.06961 32.9003 3.47937C32.3639 3.34428 31.8145 3.2674 31.2617 3.25007C29.3073 3.16482 27.3814 3.74331 25.7949 4.89211C24.2085 6.04091 23.0542 7.69294 22.5184 9.58136C22.3795 10.0662 22.2851 10.5627 22.2364 11.0648C22.2082 11.362 22.1885 11.6564 22.1885 11.9537C22.1898 13.8907 22.8337 15.7722 24.0185 17.3013C25.2033 18.8304 26.8616 19.92 28.7318 20.3982C29.4238 20.5794 30.1362 20.6702 30.8513 20.6686C33.0375 20.6812 35.1474 19.863 36.7572 18.3784C37.2757 17.9049 37.7342 17.3691 38.1223 16.7832L38.2633 16.5878C38.2774 16.568 38.3254 16.5807 38.3367 16.6076C38.3495 16.6341 38.3604 16.6616 38.3691 16.6897C38.6759 17.7744 39.1016 18.8217 39.6383 19.8122C39.6629 19.8553 39.685 19.8997 39.7045 19.9453C39.7068 19.9546 39.7071 19.9644 39.7054 19.9739C39.7037 19.9834 39.7001 19.9925 39.6947 20.0005C39.6595 20.0499 39.6213 20.0972 39.5804 20.142C37.8582 21.9818 35.6005 23.2278 33.1302 23.7019C32.4338 23.8415 31.7251 23.9102 31.0149 23.9071C30.7596 23.9071 30.5016 23.9071 30.2463 23.8915C29.9911 23.876 29.6949 23.8576 29.4214 23.8222C28.5886 23.7191 27.7692 23.5264 26.9775 23.2475C24.2885 22.3186 22.0231 20.4483 20.5963 17.9792C19.924 16.836 19.4505 15.5862 19.196 14.2835C19.0803 13.7293 19.0119 13.1663 18.9915 12.6005C18.9915 12.3825 18.9718 12.166 18.9619 11.9466M19.2806 11.9367C19.2891 12.2339 19.2806 12.5312 19.3102 12.827C19.3455 13.2403 19.3948 13.6522 19.4696 14.0613C19.8139 15.9491 20.6191 17.7217 21.8133 19.2206C22.9819 20.6902 24.489 21.8527 26.2047 22.6077C26.6746 22.8139 27.1574 22.9888 27.6502 23.1314C28.0869 23.2551 28.5299 23.3558 28.9772 23.4329C29.3751 23.5033 29.7767 23.5505 30.1801 23.5745C30.7708 23.611 31.3634 23.6016 31.9527 23.5462C32.513 23.4942 33.0691 23.403 33.6167 23.273C34.606 23.0362 35.5596 22.6688 36.4526 22.1803C37.3557 21.6864 38.1913 21.0774 38.9388 20.3685C39.0474 20.2666 39.1489 20.1604 39.2533 20.0543C39.3576 19.9481 39.3534 19.9311 39.2871 19.7924C39.2617 19.7386 39.235 19.6862 39.2067 19.6325C38.8612 18.9655 38.5652 18.2738 38.3211 17.5631C38.2929 17.4796 38.2619 17.3946 38.2323 17.3125C38.2287 17.3034 38.2227 17.2954 38.2149 17.2895C38.2071 17.2836 38.1978 17.2799 38.188 17.2789C38.1783 17.2778 38.1685 17.2795 38.1596 17.2837C38.1508 17.2879 38.1432 17.2944 38.1378 17.3026C38.1012 17.3479 38.0645 17.396 38.0278 17.4442C37.6904 17.8848 37.3127 18.2928 36.8997 18.6629C36.1487 19.3378 35.2908 19.8823 34.3613 20.2736C33.4499 20.6569 32.4827 20.8897 31.4972 20.963C30.4613 21.0319 29.4213 20.9183 28.4244 20.6275C26.8213 20.1673 25.3771 19.269 24.253 18.033C23.5615 17.2698 23.0032 16.3951 22.6016 15.4456C22.3784 14.9174 22.206 14.369 22.0869 13.8079C21.9994 13.4118 21.9419 13.0096 21.9149 12.6048C21.865 11.8954 21.8995 11.1827 22.0178 10.4816C22.0959 10.0235 22.2071 9.57171 22.3506 9.12984C22.5721 8.46142 22.8702 7.82112 23.2391 7.22181C23.603 6.63219 24.032 6.08567 24.5181 5.59263C24.7966 5.31165 25.0939 5.05012 25.4079 4.80989C26.8499 3.69914 28.5911 3.04872 30.4057 2.94292C31.0861 2.90474 31.7686 2.94703 32.4392 3.06889C34.6893 3.46957 36.7047 4.71062 38.08 6.5424C38.1745 6.66979 38.2647 6.7986 38.362 6.9274C38.3691 6.93713 38.3787 6.9447 38.3897 6.94929C38.4008 6.95388 38.4129 6.9553 38.4248 6.95339C38.4366 6.95149 38.4477 6.94633 38.4568 6.93849C38.4659 6.93066 38.4726 6.92045 38.4763 6.909C38.5031 6.84531 38.527 6.78019 38.5524 6.71508C38.772 6.15334 39.0263 5.60591 39.3139 5.076L39.6594 4.4532C39.6775 4.42915 39.6858 4.39912 39.6826 4.36917C39.6795 4.33922 39.6652 4.31158 39.6425 4.29184C39.6115 4.25362 39.5805 4.21399 39.548 4.1786C39.2885 3.89551 39.0192 3.61243 38.7343 3.35764C38.0714 2.74907 37.3403 2.21991 36.5556 1.78084C35.8716 1.40072 35.1516 1.08969 34.4064 0.852304C33.4842 0.559621 32.5291 0.383688 31.5635 0.328589C30.805 0.283232 30.0439 0.31453 29.2916 0.422008C28.901 0.478626 28.5118 0.546567 28.1296 0.639987C26.2702 1.09389 24.5514 2.00219 23.1262 3.28404C22.6929 3.67396 22.2898 4.09652 21.9205 4.54804C20.9594 5.72112 20.2356 7.07122 19.7897 8.52261C19.6303 9.0318 19.5092 9.55225 19.4273 10.0796C19.3268 10.6953 19.2796 11.3185 19.2863 11.9423" fill="#1B1B1B"></path><path d="M38.7111 12.3409C38.7082 11.8131 38.7369 11.2856 38.7972 10.7613C38.9354 9.522 39.2218 8.30396 39.6503 7.13348C39.882 6.50347 40.1533 5.88887 40.4626 5.2934C40.495 5.23112 40.5289 5.17167 40.5627 5.1108C40.5716 5.09951 40.5846 5.09215 40.5988 5.0903C40.613 5.08845 40.6274 5.09225 40.6389 5.1009C40.6812 5.15468 40.7235 5.20847 40.763 5.26509C42.1474 7.31572 42.8621 9.7478 42.8081 12.2243C42.754 14.7008 41.9338 17.0991 40.4612 19.0869C40.4192 19.1411 40.3745 19.1931 40.3272 19.2426C40.3244 19.2467 40.3206 19.25 40.3162 19.2524C40.3117 19.2547 40.3068 19.2559 40.3019 19.2559C40.2969 19.2559 40.292 19.2547 40.2875 19.2524C40.2831 19.25 40.2793 19.2467 40.2765 19.2426C40.2469 19.1917 40.2158 19.1407 40.1904 19.0883C39.7381 18.1318 39.3851 17.1309 39.137 16.1017C38.8392 14.8748 38.6971 13.615 38.714 12.3522M39.0186 12.4655C39.0112 12.9898 39.0366 13.5141 39.0947 14.0352C39.1427 14.5065 39.2188 14.9751 39.3105 15.4421C39.5057 16.4327 39.7995 17.401 40.1876 18.3325C40.2285 18.433 40.2793 18.5292 40.3286 18.6269C40.3413 18.651 40.3879 18.6595 40.402 18.6382C40.4626 18.5604 40.5247 18.4839 40.5797 18.4018C41.0308 17.716 41.409 16.9844 41.7078 16.2192C41.9344 15.639 42.1131 15.0411 42.2423 14.4315C42.3184 14.0734 42.3763 13.7125 42.4242 13.3501C42.4679 13.026 42.4877 12.7004 42.5004 12.3749C42.5276 11.9999 42.5196 11.6231 42.4764 11.2496C42.4551 10.7261 42.3904 10.2053 42.2832 9.6926C42.1901 9.19112 42.062 8.69684 41.8996 8.21346C41.6343 7.42339 41.2854 6.66415 40.8589 5.94875C40.8039 5.85533 40.739 5.76757 40.6784 5.6784C40.6643 5.65717 40.6191 5.66424 40.6036 5.69114C40.577 5.73278 40.5525 5.77577 40.5303 5.81994C40.2563 6.38991 40.0171 6.97603 39.8139 7.5751C39.6626 8.02521 39.5333 8.48193 39.4261 8.94525C39.3204 9.39819 39.2357 9.85397 39.1681 10.314C39.106 10.7245 39.0707 11.1378 39.0468 11.5525C39.0284 11.8483 39.0299 12.1456 39.0228 12.4428" fill="#1B1B1B"></path><path d="M19.2799 11.9419C19.2733 11.3181 19.3204 10.6949 19.4209 10.0792C19.5028 9.55186 19.624 9.0314 19.7834 8.52222C20.2307 7.06989 20.9565 5.71926 21.9198 4.54623C22.2891 4.09471 22.6922 3.67215 23.1255 3.28223C24.5507 2.00038 26.2695 1.09208 28.1289 0.638179C28.5111 0.54476 28.9003 0.476818 29.2909 0.4202C30.0432 0.312722 30.8043 0.281425 31.5628 0.326781C32.5285 0.38234 33.4835 0.558749 34.4057 0.851912C35.149 1.08919 35.867 1.39974 36.5492 1.77903C37.3339 2.2181 38.0651 2.74726 38.728 3.35584C39.01 3.61628 39.2822 3.89088 39.5417 4.1768C39.5741 4.21218 39.6051 4.25181 39.6362 4.29003C39.6588 4.30978 39.6732 4.33741 39.6763 4.36736C39.6794 4.39731 39.6711 4.42735 39.6531 4.45139L39.3076 5.07419C39.02 5.6041 38.7656 6.15153 38.5461 6.71328C38.5207 6.77839 38.4967 6.8435 38.4699 6.90719C38.4663 6.91864 38.4595 6.92885 38.4504 6.93669C38.4413 6.94452 38.4303 6.94968 38.4184 6.95158C38.4066 6.95349 38.3945 6.95207 38.3834 6.94748C38.3723 6.94289 38.3627 6.93532 38.3557 6.92559C38.2626 6.79679 38.1724 6.66798 38.0736 6.54059C36.6983 4.70882 34.6829 3.46776 32.4328 3.06709C31.7623 2.94522 31.0798 2.90294 30.3993 2.94111C28.5847 3.04691 26.8436 3.69734 25.4016 4.80808C25.0875 5.04831 24.7902 5.30984 24.5118 5.59083C24.0276 6.0846 23.6004 6.63159 23.2383 7.22142C22.8693 7.81932 22.5707 8.45818 22.3485 9.1252C22.205 9.56707 22.0938 10.0189 22.0157 10.4769C21.8974 11.178 21.8628 11.8908 21.9128 12.6001C21.9398 13.0049 21.9973 13.4071 22.0848 13.8032C22.2039 14.3644 22.3762 14.9128 22.5995 15.4409C23.0011 16.3905 23.5594 17.2652 24.2509 18.0284C25.375 19.2644 26.8192 20.1626 28.4222 20.6229C29.4192 20.9137 30.4591 21.0272 31.4951 20.9583C32.4805 20.885 33.4477 20.6522 34.3592 20.269C35.2887 19.8776 36.1466 19.3332 36.8975 18.6582C37.3106 18.2882 37.6883 17.8802 38.0257 17.4395C38.0624 17.3928 38.099 17.3447 38.1357 17.298C38.1411 17.2898 38.1487 17.2832 38.1575 17.2791C38.1664 17.2749 38.1762 17.2732 38.1859 17.2742C38.1957 17.2752 38.2049 17.2789 38.2127 17.2849C38.2205 17.2908 38.2266 17.2988 38.2302 17.3079C38.2598 17.39 38.2908 17.4749 38.319 17.5584C38.563 18.2692 38.859 18.9609 39.2046 19.6278C39.2328 19.6816 39.2596 19.734 39.285 19.7878C39.3513 19.9293 39.3499 19.9477 39.2512 20.0496C39.1525 20.1515 39.0453 20.2619 38.9367 20.3638C38.1911 21.0734 37.3574 21.6833 36.4561 22.1784C35.5632 22.667 34.6095 23.0344 33.6202 23.2712C33.0726 23.4012 32.5166 23.4924 31.9562 23.5444C31.3669 23.5998 30.7743 23.6092 30.1836 23.5727C29.7802 23.5487 29.3786 23.5015 28.9807 23.4311C28.5334 23.354 28.0905 23.2533 27.6537 23.1296C27.161 22.987 26.6781 22.8121 26.2082 22.6059C24.7997 21.9849 23.5285 21.0886 22.4688 19.9692C21.409 18.8499 20.5819 17.5299 20.0358 16.0864C19.7873 15.4292 19.5985 14.7508 19.4717 14.0594C19.397 13.6504 19.3476 13.2385 19.3123 12.8252C19.2884 12.5293 19.2912 12.2321 19.2827 11.9349" fill="#1B1B1B"></path><path d="M39.0159 12.4585C39.023 12.1613 39.0159 11.864 39.0399 11.5682C39.0639 11.1535 39.0991 10.7401 39.1612 10.3297C39.2288 9.86964 39.3135 9.41387 39.4192 8.96093C39.525 8.50798 39.6561 8.04088 39.807 7.59077C40.0102 6.99171 40.2495 6.40558 40.5234 5.83562C40.5456 5.79145 40.5701 5.74846 40.5967 5.70681C40.6123 5.67992 40.6574 5.67284 40.6715 5.69407C40.7321 5.78325 40.797 5.87101 40.852 5.96442C41.2799 6.67414 41.6311 7.42764 41.8998 8.21215C42.0618 8.68995 42.1905 9.17853 42.2847 9.67431C42.392 10.187 42.4566 10.7078 42.4779 11.2313C42.5212 11.6048 42.5292 11.9816 42.5019 12.3566C42.4892 12.6821 42.4695 13.0077 42.4258 13.3318C42.3778 13.6942 42.32 14.0551 42.2439 14.4132C42.1147 15.0228 41.9359 15.6207 41.7094 16.2009C41.4105 16.9661 41.0324 17.6977 40.5812 18.3836C40.5262 18.4657 40.4642 18.5421 40.4035 18.6199C40.3894 18.6412 40.3429 18.6327 40.3302 18.6086C40.2837 18.5109 40.2329 18.4147 40.1892 18.3142C39.8001 17.3851 39.5048 16.4192 39.3078 15.4309C39.2162 14.9638 39.14 14.4953 39.0921 14.024C39.0339 13.5029 39.0085 12.9786 39.0159 12.4542" fill="#1B1B1B"></path><path d="M87.5742 12.2356V1.13427C87.5742 1.055 87.5742 0.975736 87.5742 0.896471C87.5742 0.767666 87.5996 0.743603 87.7307 0.742188C87.8196 0.742188 87.9084 0.742188 87.9973 0.742188C90.6231 0.742188 93.2489 0.742188 95.8747 0.742188C96.319 0.746205 96.7626 0.777877 97.2031 0.837023C98.222 0.965909 99.216 1.24741 100.152 1.67214C101.47 2.26437 102.652 3.12358 103.624 4.19588C103.677 4.25533 103.727 4.31619 103.776 4.37847C103.786 4.38932 103.793 4.40324 103.794 4.41808C103.796 4.43292 103.792 4.44785 103.784 4.46057L103.708 4.58654C103.094 5.5477 102.631 6.59797 102.335 7.70052C102.324 7.73807 102.308 7.77383 102.287 7.80668C102.284 7.81078 102.281 7.81416 102.277 7.8165C102.272 7.81885 102.268 7.82008 102.263 7.82008C102.258 7.82008 102.253 7.81885 102.249 7.8165C102.245 7.81416 102.241 7.81078 102.239 7.80668C102.194 7.74157 102.15 7.67646 102.111 7.60852C101.605 6.73738 100.924 5.98153 100.111 5.3891C99.298 4.79668 98.3711 4.38067 97.3892 4.16757C96.8796 4.05648 96.3595 4.00049 95.838 4.00055H91.3028H91.0363C91.0169 4.00151 90.9984 4.00903 90.9838 4.02187C90.9692 4.03472 90.9594 4.05215 90.9559 4.07132C90.9559 4.09963 90.9559 4.12935 90.9559 4.15908C90.9559 4.23834 90.9559 4.31761 90.9559 4.39687V20.1083C90.9559 20.2027 90.9559 20.3018 90.9559 20.4056C90.9566 20.4179 90.9598 20.43 90.9652 20.4411C90.9707 20.4522 90.9783 20.462 90.9877 20.4701C90.997 20.4782 91.0079 20.4843 91.0196 20.488C91.0314 20.4917 91.0437 20.4931 91.056 20.4919C91.135 20.4919 91.2139 20.4919 91.2929 20.4919C92.7341 20.4919 94.1754 20.4919 95.6166 20.4919C95.9935 20.4952 96.3703 20.4749 96.7447 20.4311C97.7914 20.3011 98.7974 19.9443 99.693 19.3854C100.589 18.8264 101.352 18.0787 101.931 17.1939C101.964 17.1444 101.994 17.0934 102.029 17.0453C102.044 17.0241 102.072 16.9958 102.092 16.9972C102.112 16.9986 102.14 17.0297 102.151 17.0538C102.165 17.0908 102.177 17.1287 102.187 17.167C102.522 18.2011 102.964 19.1972 103.505 20.1395C103.605 20.3136 103.624 20.2966 103.464 20.4636C102.139 21.8698 100.452 22.8797 98.5893 23.3808C98.1037 23.5113 97.6093 23.6059 97.11 23.6639C96.6593 23.7179 96.2058 23.7444 95.752 23.7432C93.1459 23.7432 90.5399 23.7432 87.9338 23.7432C87.845 23.7432 87.7561 23.7432 87.6673 23.7432C87.6479 23.7403 87.6299 23.7315 87.6156 23.7182C87.6012 23.7048 87.5912 23.6874 87.5869 23.6682C87.5869 23.6385 87.5869 23.6101 87.5869 23.5804C87.5869 23.4913 87.5869 23.4021 87.5869 23.3129V12.2356M90.6611 12.2498V4.41244C90.6611 4.32327 90.6611 4.2341 90.6611 4.14492C90.6629 4.11532 90.6596 4.08563 90.6513 4.05716C90.6486 4.04242 90.6413 4.02893 90.6303 4.01873C90.6194 4.00852 90.6055 4.00214 90.5906 4.00055C90.5413 4.00055 90.4933 3.99064 90.4496 3.99064H88.0903C87.8802 3.99064 87.8774 3.99064 87.876 4.20579C87.876 4.27514 87.876 4.34733 87.876 4.41386V20.0899C87.876 20.1791 87.876 20.2683 87.876 20.3575C87.8757 20.3868 87.8805 20.416 87.8901 20.4438C87.893 20.453 87.8979 20.4615 87.9045 20.4686C87.9111 20.4757 87.9192 20.4813 87.9282 20.4848C87.9747 20.4935 88.0219 20.4982 88.0692 20.499H90.4369C90.4764 20.499 90.5159 20.499 90.5554 20.4919C90.5747 20.4888 90.5925 20.4796 90.6062 20.4655C90.6199 20.4515 90.6288 20.4335 90.6315 20.4141C90.6315 20.315 90.6414 20.2173 90.6414 20.1182V12.2498M92.407 1.06066H88.1538C88.0849 1.06045 88.0161 1.06518 87.9479 1.07482C87.9349 1.07947 87.9231 1.08696 87.9134 1.09675C87.9036 1.10655 87.8961 1.11839 87.8915 1.13144C87.8821 1.19039 87.8783 1.25011 87.8802 1.30978C87.8802 1.63533 87.8802 1.96183 87.8802 2.28927C87.8802 2.70541 87.8802 3.12014 87.8802 3.53628C87.8802 3.66792 87.9056 3.69056 88.0353 3.69198H88.2948C90.8332 3.69198 93.3716 3.69198 95.9099 3.69198C96.3241 3.69306 96.7375 3.73048 97.1452 3.8038C99.083 4.14204 100.813 5.22508 101.968 6.82295C101.998 6.86258 102.03 6.89938 102.063 6.93618C102.069 6.94036 102.075 6.94329 102.082 6.94477C102.09 6.94625 102.097 6.94627 102.104 6.94481C102.111 6.94335 102.118 6.94046 102.124 6.9363C102.13 6.93214 102.135 6.9268 102.139 6.92061C102.156 6.88523 102.173 6.84984 102.187 6.81304C102.485 6.03725 102.845 5.28657 103.263 4.56814C103.287 4.52568 103.312 4.48321 103.335 4.43933C103.347 4.41708 103.353 4.39125 103.35 4.36573C103.347 4.34022 103.335 4.31638 103.318 4.29779C103.222 4.19871 103.124 4.10104 103.027 4.00338C101.602 2.58543 99.7904 1.62384 97.8207 1.24042C97.2308 1.12309 96.6312 1.06195 96.0298 1.05783H92.414M92.2984 23.4219H95.8817C96.2364 23.4238 96.5909 23.4059 96.9436 23.3681C97.4239 23.3156 97.9002 23.2309 98.3693 23.1147C99.0791 22.9367 99.7676 22.6818 100.423 22.3546C101.421 21.8519 102.33 21.1888 103.115 20.3914C103.202 20.3022 103.208 20.2584 103.154 20.155C103.136 20.1197 103.116 20.0857 103.096 20.0517C102.721 19.3686 102.395 18.659 102.122 17.9285C102.094 17.8549 102.061 17.787 102.033 17.7077C102.029 17.7016 102.024 17.6964 102.018 17.6925C102.012 17.6886 102.006 17.6862 101.998 17.6853C101.991 17.6845 101.984 17.6854 101.977 17.6878C101.971 17.6902 101.965 17.6941 101.96 17.6992C101.884 17.7898 101.806 17.8804 101.733 17.9724C101.399 18.3902 101.021 18.77 100.604 19.1048C99.7887 19.7666 98.8445 20.2506 97.832 20.5259C97.206 20.7007 96.5597 20.7916 95.9099 20.7962H88.0283C87.9987 20.7934 87.9688 20.7973 87.9409 20.8076C87.9183 20.8175 87.8887 20.8444 87.8873 20.8656C87.8786 20.9441 87.8749 21.023 87.876 21.102C87.876 21.7625 87.876 22.4259 87.876 23.0921C87.876 23.4559 87.8436 23.4219 88.213 23.4219H92.3026" fill="#1B1B1B"></path><path d="M102.666 12.4351C102.662 11.8412 102.693 11.2475 102.761 10.6573C102.974 8.83604 103.508 7.06737 104.339 5.43434C104.362 5.39046 104.388 5.34799 104.411 5.30553C104.416 5.30034 104.421 5.29619 104.428 5.29336C104.434 5.29053 104.441 5.28906 104.448 5.28906C104.455 5.28906 104.462 5.29053 104.469 5.29336C104.475 5.29619 104.481 5.30034 104.486 5.30553C104.508 5.33808 104.534 5.36781 104.555 5.40178C105.326 6.64753 105.881 8.01599 106.195 9.44854C106.335 10.076 106.426 10.7135 106.468 11.3551C106.514 12.0669 106.503 12.7811 106.436 13.4911C106.242 15.5181 105.574 17.4704 104.484 19.1882C104.446 19.2463 104.405 19.3029 104.366 19.3581C104.361 19.3635 104.355 19.3679 104.349 19.3708C104.342 19.3738 104.335 19.3753 104.328 19.3753C104.32 19.3753 104.313 19.3738 104.307 19.3708C104.3 19.3679 104.294 19.3635 104.29 19.3581C104.261 19.3071 104.23 19.2562 104.205 19.2038C103.454 17.6517 102.967 15.9844 102.764 14.271C102.708 13.8011 102.675 13.3287 102.666 12.8555C102.666 12.714 102.666 12.5724 102.666 12.4408M102.964 12.4266C102.972 12.7281 102.975 13.0254 102.991 13.3212C103.011 13.6963 103.047 14.07 103.095 14.4422C103.152 14.8739 103.228 15.3014 103.319 15.7275C103.457 16.3653 103.639 16.9929 103.862 17.6058C103.981 17.9299 104.112 18.2498 104.242 18.5711C104.266 18.6245 104.296 18.6749 104.332 18.7211C104.34 18.7256 104.349 18.7279 104.358 18.7279C104.367 18.7279 104.376 18.7256 104.384 18.7211C104.42 18.6881 104.452 18.6499 104.477 18.6079C104.74 18.1546 104.976 17.6857 105.182 17.2038C105.628 16.1569 105.93 15.0541 106.079 13.9256C106.112 13.6906 106.123 13.4528 106.15 13.2179C106.173 13.0215 106.184 12.824 106.185 12.6262C106.198 12.1125 106.183 11.5984 106.141 11.0862C106.105 10.7111 106.057 10.3389 105.99 9.96943C105.861 9.24898 105.669 8.54134 105.416 7.85475C105.188 7.23284 104.911 6.6299 104.589 6.05147C104.57 6.01608 104.548 5.98353 104.526 5.94956C104.505 5.91559 104.442 5.91276 104.414 5.96937C104.397 6.00476 104.378 6.03873 104.363 6.07553C104.243 6.35862 104.119 6.64171 104.008 6.9248C103.655 7.81697 103.392 8.74202 103.222 9.68634C103.168 9.97792 103.116 10.2695 103.089 10.5653C103.063 10.8612 103.019 11.1145 103.002 11.3905C102.981 11.7359 102.978 12.0827 102.967 12.4224" fill="#1B1B1B"></path><path d="M90.6486 12.2513V20.1198C90.6486 20.2189 90.6486 20.3165 90.6388 20.4156C90.636 20.435 90.6271 20.4531 90.6134 20.4671C90.5997 20.4811 90.5819 20.4903 90.5626 20.4935C90.5231 20.4935 90.4837 20.5005 90.4442 20.5005H88.0764C88.0291 20.4998 87.982 20.4951 87.9354 20.4864C87.9264 20.4828 87.9183 20.4773 87.9118 20.4702C87.9052 20.4631 87.9002 20.4546 87.8973 20.4453C87.888 20.4175 87.8828 20.3884 87.8818 20.359C87.8818 20.2698 87.8818 20.1807 87.8818 20.0915V4.20734C87.8818 3.99502 87.8818 3.99219 88.0976 3.99219H90.4371C90.4865 3.99219 90.5344 3.99219 90.5781 4.0021C90.593 4.00369 90.6069 4.01007 90.6178 4.02028C90.6288 4.03048 90.6361 4.04397 90.6388 4.05871C90.6471 4.08718 90.6504 4.11687 90.6486 4.14647C90.6486 4.23564 90.6486 4.32482 90.6486 4.41399V12.2513Z" fill="#1B1B1B"></path><path d="M92.4152 1.0625H96.0282C96.6296 1.06662 97.2292 1.12775 97.8191 1.24509C99.7888 1.62851 101.601 2.5901 103.026 4.00804C103.123 4.10571 103.22 4.20338 103.316 4.30246C103.334 4.32105 103.345 4.34488 103.348 4.3704C103.351 4.39592 103.346 4.42174 103.333 4.444C103.31 4.48788 103.285 4.53034 103.261 4.57281C102.844 5.29124 102.484 6.04192 102.185 6.81771C102.171 6.85451 102.154 6.88989 102.137 6.92528C102.133 6.93147 102.128 6.9368 102.122 6.94096C102.116 6.94512 102.11 6.94802 102.102 6.94948C102.095 6.95093 102.088 6.95092 102.081 6.94944C102.074 6.94795 102.067 6.94503 102.061 6.94085C102.029 6.90405 101.996 6.86725 101.967 6.82761C100.811 5.22975 99.0814 4.14671 97.1436 3.80847C96.7359 3.73515 96.3225 3.69773 95.9083 3.69665C93.3699 3.69665 90.8316 3.69665 88.2932 3.69665H88.0267C87.897 3.69665 87.8716 3.67258 87.8716 3.54095C87.8716 3.12481 87.8716 2.70914 87.8716 2.29394C87.8716 1.96744 87.8716 1.64095 87.8716 1.31445C87.8697 1.25478 87.8734 1.19506 87.8829 1.1361C87.8873 1.12296 87.8947 1.11102 87.9045 1.1012C87.9143 1.09138 87.9262 1.08395 87.9393 1.07949C88.0075 1.06984 88.0763 1.06511 88.1452 1.06533H92.4096" fill="#1B1B1B"></path><path d="M92.2984 23.4275H88.2089C87.8394 23.4275 87.8718 23.4615 87.8718 23.0977C87.8718 22.4372 87.8718 21.7738 87.8718 21.1076C87.8707 21.0287 87.8745 20.9497 87.8831 20.8712C87.8831 20.85 87.9141 20.8231 87.9367 20.8132C87.9646 20.8029 87.9945 20.7991 88.0241 20.8019H95.91C96.5599 20.7963 97.2062 20.7044 97.8321 20.5287C98.8444 20.252 99.7881 19.7665 100.603 19.1033C101.019 18.7685 101.398 18.3888 101.731 17.971C101.805 17.879 101.882 17.7884 101.958 17.6978C101.963 17.6927 101.969 17.6887 101.976 17.6863C101.983 17.6839 101.99 17.6831 101.997 17.6839C102.004 17.6847 102.011 17.6872 102.017 17.6911C102.023 17.6949 102.028 17.7001 102.032 17.7063C102.06 17.7799 102.092 17.8478 102.12 17.9271C102.394 18.6575 102.719 19.3671 103.095 20.0503C103.115 20.0842 103.134 20.1182 103.153 20.1536C103.206 20.2569 103.201 20.2951 103.113 20.39C102.329 21.1887 101.42 21.8533 100.423 22.3574C99.7691 22.6853 99.082 22.9411 98.3736 23.1204C97.9045 23.2366 97.4282 23.3212 96.9479 23.3737C96.5952 23.4115 96.2407 23.4294 95.886 23.4275H92.2984Z" fill="#1B1B1B"></path><path d="M102.962 12.4199C102.973 12.0801 102.976 11.7334 102.997 11.388C103.014 11.1049 103.058 10.8388 103.084 10.5628C103.111 10.2868 103.163 9.97537 103.217 9.68379C103.387 8.73947 103.65 7.81443 104.003 6.92226C104.114 6.63917 104.238 6.35608 104.358 6.07299C104.373 6.03619 104.392 6.00222 104.409 5.96683C104.437 5.91021 104.492 5.90172 104.521 5.94701C104.551 5.99231 104.565 6.01354 104.584 6.04893C104.906 6.62735 105.183 7.2303 105.411 7.8522C105.664 8.5388 105.856 9.24643 105.985 9.96688C106.052 10.3363 106.1 10.7086 106.136 11.0837C106.178 11.5958 106.193 12.1099 106.18 12.6237C106.179 12.8214 106.168 13.019 106.145 13.2153C106.118 13.4503 106.107 13.6881 106.074 13.9231C105.925 15.0516 105.623 16.1544 105.177 17.2012C104.971 17.6831 104.735 18.152 104.472 18.6054C104.447 18.6474 104.415 18.6855 104.379 18.7186C104.371 18.723 104.362 18.7254 104.353 18.7254C104.344 18.7254 104.335 18.723 104.327 18.7186C104.291 18.6723 104.261 18.622 104.237 18.5685C104.107 18.2472 103.976 17.9274 103.857 17.6032C103.634 16.9903 103.452 16.3628 103.314 15.7249C103.223 15.3003 103.147 14.8757 103.09 14.4397C103.042 14.0674 103.006 13.6938 102.986 13.3187C102.97 13.0228 102.967 12.7256 102.959 12.4241" fill="#1B1B1B"></path></svg> 